# xmcd
#
# Track frame offsets:
# 150
# 14980
# 30588
# 45441
# 58214
# 70050
# 85722
# 98497
# 110653
# 122029
# 135950
# 151345
# 164801
# 183170
# 194627
# 208747
# 221899
# 236295
# 252666
# 266220
#
# Disc length: 3719 seconds
#
#
# Revision: 1
# Processed by: cddbd v1.5.2PL0 Copyright (c) Steve Scherf et al.
# Submitted via: FreeRIP 2.942 
#
DISCID=290e8514
DTITLE=Teodoro e Sampaio  - As Vinte Mais de Teodoro e Sampaio
DYEAR=1900
DGENRE=Setanejo
TTITLE0=Teodoro e Sampaio -  A Empregada
TTITLE1=Teodoro e Sampaio - A Solterirona
TTITLE2=Teodoro e Sampaio - Água No Leite
TTITLE3=Teodoro e Sampaio - Amando Escondido
TTITLE4=Teodoro e Sampaio - Cantaram a Minha Vizinha
TTITLE5=Teodoro e Sampaio - Cheirinho de Mulher
TTITLE6=Teodoro e Sampaio - Cunhada
TTITLE7=Teodoro e Sampaio - Espora do Amor
TTITLE8=Teodoro e Sampaio - Garnhão da Madrugada
TTITLE9=Teodoro e Sampaio - Meu Barraco Caiu
TTITLE10=Teodoro e Sampaio - O Garrafão
TTITLE11=Teodoro e Sampaio - O Machão Chorou
TTITLE12=Teodoro e Sampaio - Paixão Proibida
TTITLE13=Teodoro e Sampaio - Passe Livre
TTITLE14=Teodoro e Sampaio - Raimunda
TTITLE15=Teodoro e Sampaio - Se a Casa Cair
TTITLE16=Teodoro e Sampaio - Tadinha
TTITLE17=Teodoro e Sampaio - Tô Apaixonado
TTITLE18=Teodoro e Sampaio - Vestido de Seda
TTITLE19=Teodoro e Sampaio - Vírus da Paixão
EXTD=
EXTT0=
EXTT1=
EXTT2=
EXTT3=
EXTT4=
EXTT5=
EXTT6=
EXTT7=
EXTT8=
EXTT9=
EXTT10=
EXTT11=
EXTT12=
EXTT13=
EXTT14=
EXTT15=
EXTT16=
EXTT17=
EXTT18=
EXTT19=
PLAYORDER=
